<svg width="2090" height="698" viewBox="0 0 2090 698" fill="none" xmlns="http://www.w3.org/2000/svg" role="img" aria-labelledby="title desc">
  <title id="title">CREDIA</title>
  <desc id="desc">Logo de Credia en verde y blanco sobre fondo transparente</desc>
  <path d="M177.8 579.6C72.2 579.6 0 506.8 0 407.9C0 309.2 72.2 236.2 177.8 236.2C234.8 236.2 282.4 254 317.6 289.4L288.6 318.4C258.2 287.6 222 275 180 275C100 275 43.8 330.8 43.8 407.9C43.8 485.2 100 541 180 541C222 541 258.2 528 288.6 496.8L317.6 525.8C282.4 561.4 234.8 579.6 177.8 579.6Z" fill="#00D66F"/>
  <path d="M665.2 576L588.6 468.2C580.6 469 572.2 469.4 563.4 469.4H473.2V576H429.8V239.8H563.4C649.4 239.8 701.8 283.4 701.8 355.2C701.8 407.4 674.6 444.6 627.8 460.6L709.6 576H665.2ZM562.2 432.4C625.4 432.4 658 404 658 355.2C658 306.8 625.4 278 562.2 278H473.2V432.4H562.2Z" fill="#00D66F"/>
  <path d="M1047.6 537.8V576H809.6V239.8H1040.8V278H853V386.2H1020.4V423.4H853V537.8H1047.6Z" fill="#00D66F"/>
  <path d="M1170.8 239.8H1313.4C1421.8 239.8 1495.4 308.2 1495.4 407.9C1495.4 507.8 1421.8 576 1313.4 576H1170.8V239.8ZM1310.8 537.8C1396.8 537.8 1451.8 485.8 1451.8 407.9C1451.8 330 1396.8 278 1310.8 278H1214.2V537.8H1310.8Z" fill="#00D66F"/>
  <path d="M1586.8 239.8H1630.2V576H1586.8V239.8Z" fill="white"/>
  <path d="M1957.6 491.8H1778.8L1741.8 576H1697L1849.2 239.8H1892.2L2044.8 576H1999.2L1957.6 491.8ZM1942.4 456.2L1868.2 288.4L1794 456.2H1942.4Z" fill="white"/>
</svg>
